<?xml version="1.0" encoding="UTF-8" standalone="no"?>
<svg width="150px" height="50px" viewBox="0 0 150 50" version="1.1" xmlns="http://www.w3.org/2000/svg" xmlns:xlink="http://www.w3.org/1999/xlink">
    <!-- Generator: Sketch 41.2 (35397) - http://www.bohemiancoding.com/sketch -->
    <title>official-ios-cn</title>
    <desc>Created with Sketch.</desc>
    <defs>
        <rect id="path-1" x="0" y="0" width="150" height="50" rx="5"></rect>
        <mask id="mask-2" maskContentUnits="userSpaceOnUse" maskUnits="objectBoundingBox" x="0" y="0" width="150" height="50" fill="white">
            <use xlink:href="#path-1"></use>
        </mask>
    </defs>
    <g id="Page-1" stroke="none" stroke-width="1" fill="none" fill-rule="evenodd">
        <g id="official-ios-cn">
            <g id="Group-14">
                <use id="Rectangle-4" stroke="#A6A6A6" mask="url(#mask-2)" stroke-width="2" fill="#000000" xlink:href="#path-1"></use>
                <g id="Group-4" transform="translate(50.000000, 8.000000)" fill="#FFFFFF">
                    <path d="M7.98,9.371 L9.139,13 L11.647,13 L7.486,0.194 L4.503,0.194 L0.399,13 L2.812,13 L3.914,9.371 L7.98,9.371 Z M4.294,7.604 L5.282,4.45 C5.51,3.69 5.7,2.797 5.89,2.056 L5.928,2.056 C6.118,2.797 6.327,3.671 6.574,4.45 L7.581,7.604 L4.294,7.604 Z M13.718,16.762 L16.055,16.762 L16.055,11.974 L16.093,11.974 C16.568,12.715 17.537,13.209 18.696,13.209 C20.805,13.209 22.914,11.594 22.914,8.25 C22.914,5.362 21.147,3.538 19.019,3.538 C17.613,3.538 16.53,4.127 15.846,5.172 L15.808,5.172 L15.694,3.747 L13.642,3.747 C13.68,4.621 13.718,5.609 13.718,6.825 L13.718,16.762 Z M16.055,7.699 C16.055,7.509 16.093,7.3 16.131,7.11 C16.378,6.084 17.271,5.381 18.24,5.381 C19.741,5.381 20.539,6.711 20.539,8.345 C20.539,10.169 19.665,11.404 18.183,11.404 C17.176,11.404 16.359,10.72 16.112,9.77 C16.074,9.561 16.055,9.352 16.055,9.124 L16.055,7.699 Z M25.308,16.762 L27.645,16.762 L27.645,11.974 L27.683,11.974 C28.158,12.715 29.127,13.209 30.286,13.209 C32.395,13.209 34.504,11.594 34.504,8.25 C34.504,5.362 32.737,3.538 30.609,3.538 C29.203,3.538 28.12,4.127 27.436,5.172 L27.398,5.172 L27.284,3.747 L25.232,3.747 C25.27,4.621 25.308,5.609 25.308,6.825 L25.308,16.762 Z M27.645,7.699 C27.645,7.509 27.683,7.3 27.721,7.11 C27.968,6.084 28.861,5.381 29.83,5.381 C31.331,5.381 32.129,6.711 32.129,8.345 C32.129,10.169 31.255,11.404 29.773,11.404 C28.766,11.404 27.949,10.72 27.702,9.77 C27.664,9.561 27.645,9.352 27.645,9.124 L27.645,7.699 Z M40.8310001,12.392 C41.5340001,12.81 42.9400001,13.19 44.3080001,13.19 C47.5950001,13.19 49.1530001,11.423 49.1530001,9.352 C49.1530001,7.528 48.0890001,6.407 45.8660001,5.552 C44.1560001,4.906 43.4150001,4.45 43.4150001,3.462 C43.4150001,2.702 44.0420001,1.923 45.5240001,1.923 C46.7210001,1.923 47.6140001,2.284 48.0890001,2.531 L48.6400001,0.631 C47.9750001,0.308 46.9680001,0.004 45.5810001,0.004 C42.7880001,0.004 41.0400001,1.581 41.0400001,3.69 C41.0400001,5.514 42.3890001,6.654 44.5170001,7.395 C46.1320001,7.984 46.7780001,8.554 46.7780001,9.523 C46.7780001,10.568 45.9420001,11.271 44.4600001,11.271 C43.2630001,11.271 42.1040001,10.891 41.3630001,10.454 L40.8310001,12.392 Z M51.9460001,2.018 L51.9460001,3.747 L50.6350001,3.747 L50.6350001,5.495 L51.9460001,5.495 L51.9460001,9.827 C51.9460001,11.043 52.1740001,11.898 52.6870001,12.43 C53.1240001,12.905 53.8270001,13.19 54.7010001,13.19 C55.4230001,13.19 56.0500001,13.076 56.3920001,12.943 L56.3540001,11.176 C56.0880001,11.252 55.8600001,11.271 55.4420001,11.271 C54.5490001,11.271 54.2450001,10.701 54.2450001,9.561 L54.2450001,5.495 L56.4680001,5.495 L56.4680001,3.747 L54.2450001,3.747 L54.2450001,1.372 L51.9460001,2.018 Z M62.6620001,13.209 C64.9990001,13.209 67.3930001,11.689 67.3930001,8.288 C67.3930001,5.476 65.5500001,3.538 62.7950001,3.538 C60.0020001,3.538 58.0070001,5.4 58.0070001,8.44 C58.0070001,11.423 60.0400001,13.209 62.6430001,13.209 L62.6620001,13.209 Z M62.7000001,11.518 C61.3130001,11.518 60.4200001,10.169 60.4200001,8.383 C60.4200001,6.844 61.0850001,5.229 62.7380001,5.229 C64.3340001,5.229 64.9800001,6.901 64.9800001,8.345 C64.9800001,10.226 64.0490001,11.518 62.7190001,11.518 L62.7000001,11.518 Z M69.7870002,13 L72.1240002,13 L72.1240002,8.193 C72.1240002,7.946 72.1430002,7.699 72.1810002,7.49 C72.3900002,6.426 73.1690002,5.723 74.2710002,5.723 C74.5560002,5.723 74.7650002,5.742 74.9740002,5.78 L74.9740002,3.595 C74.7840002,3.557 74.6510002,3.538 74.4230002,3.538 C73.4160002,3.538 72.3330002,4.203 71.8770002,5.495 L71.8200002,5.495 L71.7250002,3.747 L69.7110002,3.747 C69.7680002,4.564 69.7870002,5.476 69.7870002,6.73 L69.7870002,13 Z M84.7020002,9.029 C84.7400002,8.82 84.7780002,8.478 84.7780002,8.041 C84.7780002,6.008 83.7900002,3.538 80.7880002,3.538 C77.8240002,3.538 76.2660002,5.951 76.2660002,8.516 C76.2660002,11.347 78.0330002,13.19 81.0350002,13.19 C82.3650002,13.19 83.4670002,12.943 84.2650002,12.601 L83.9230002,11.005 C83.2010002,11.252 82.4410002,11.423 81.3580002,11.423 C79.8760002,11.423 78.5650002,10.701 78.5080002,9.029 L84.7020002,9.029 Z M78.5080002,7.395 C78.6030002,6.445 79.2110002,5.134 80.6550002,5.134 C82.2130002,5.134 82.5930002,6.54 82.5740002,7.395 L78.5080002,7.395 Z" id="App-Store"></path>
                    <path d="M0.676,20.938 L0.676,22.147 L5.538,22.147 L5.538,32.339 L6.773,32.339 L6.773,25.163 C7.865,25.722 9.23,26.541 10.868,27.607 L11.609,26.489 C9.971,25.501 8.359,24.617 6.773,23.85 L6.773,22.147 L12.311,22.147 L12.311,20.938 L0.676,20.938 Z M14.547,21.289 L14.547,22.407 L16.978,22.407 L16.978,23.343 L13.871,23.343 L13.871,24.474 L21.086,24.474 C21.164,25.592 21.307,26.567 21.489,27.373 C21.619,28.023 21.788,28.621 21.97,29.167 C21.333,30.129 20.566,30.857 19.656,31.351 L20.319,32.339 C21.125,31.897 21.853,31.286 22.503,30.48 C22.594,30.662 22.698,30.844 22.815,31.013 C23.361,31.793 23.855,32.183 24.323,32.183 C24.908,32.183 25.35,31.312 25.649,29.583 L24.596,29.024 C24.453,30.285 24.31,30.922 24.18,30.922 C24.011,30.922 23.777,30.61 23.465,30.012 C23.374,29.843 23.283,29.648 23.205,29.44 C23.842,28.348 24.362,27.009 24.765,25.423 L23.66,24.929 C23.413,25.982 23.101,26.931 22.724,27.789 C22.672,27.568 22.633,27.334 22.581,27.1 C22.451,26.424 22.347,25.553 22.269,24.474 L25.376,24.474 L25.376,23.343 L22.204,23.343 C22.152,22.433 22.126,21.419 22.126,20.288 L20.93,20.288 C20.93,21.38 20.956,22.407 21.008,23.343 L18.174,23.343 L18.174,22.407 L20.423,22.407 L20.423,21.289 L18.174,21.289 L18.174,20.301 L16.978,20.301 L16.978,21.289 L14.547,21.289 Z M23.452,20.418 L22.516,21.016 C23.166,21.744 23.673,22.394 24.037,22.979 L24.96,22.329 C24.609,21.783 24.102,21.146 23.452,20.418 Z M20.423,29.531 C19.812,29.609 19.175,29.674 18.499,29.739 L18.499,28.907 L20.358,28.907 L20.358,27.88 L18.499,27.88 L18.499,27.022 L17.29,27.022 L17.29,27.88 L16.029,27.88 C16.289,27.477 16.549,27.035 16.783,26.541 L20.488,26.541 L20.488,25.449 L17.238,25.449 C17.316,25.241 17.394,25.033 17.472,24.799 L16.302,24.578 C16.198,24.877 16.107,25.163 16.003,25.449 L14.261,25.449 L14.261,26.541 L15.522,26.541 C15.249,27.087 14.963,27.542 14.651,27.919 L14.885,28.907 L17.29,28.907 L17.29,29.856 C16.354,29.934 15.379,29.999 14.339,30.051 L14.482,31.195 C15.457,31.117 16.393,31.039 17.29,30.961 L17.29,32.3 L18.499,32.3 L18.499,30.831 C19.162,30.753 19.799,30.675 20.423,30.597 L20.423,29.531 Z" id="下载"></path>
                </g>
                <g id="Group" transform="translate(15.000000, 8.000000)" fill="#FFFFFF">
                    <path d="M22.7711515,18.0252308 C22.733124,13.8105385 26.2316584,11.7600769 26.3916364,11.6646154 C24.41027,8.78376923 21.3392176,8.39015385 20.260022,8.35876923 C17.6807052,8.08807692 15.1787548,9.89792308 13.8648375,9.89792308 C12.5246942,9.89792308 10.5013664,8.38492308 8.3206832,8.42938462 C5.5145124,8.47253846 2.88930028,10.0927692 1.44949862,12.6087692 C-1.52189532,17.7388462 0.694192837,25.2776923 3.54101377,29.4243846 C4.96507989,31.4552308 6.62911295,33.7227692 8.80717355,33.643 C10.9380275,33.5553846 11.7339835,32.2882308 14.3054325,32.2882308 C16.8532782,32.2882308 17.6007163,33.643 19.8220496,33.592 C22.1089477,33.5553846 23.5487493,31.552 24.9229862,29.5028462 C26.5686612,27.1751538 27.2295537,24.8827692 27.2557796,24.7650769 C27.2020165,24.7467692 22.8144242,23.0768462 22.7711515,18.0252308 Z" id="Shape"></path>
                    <path d="M18.5750083,5.63092308 C19.7210799,4.20161538 20.5052342,2.25707692 20.2875592,0.283769231 C18.6287713,0.357 16.554303,1.428 15.3597135,2.82592308 C14.3028099,4.05776923 13.3586777,6.07684615 13.6025785,7.97561538 C15.4659284,8.11423077 17.3791074,7.038 18.5750083,5.63092308 Z" id="Shape"></path>
                </g>
            </g>
        </g>
    </g>
</svg>