<?xml version="1.0" encoding="UTF-8" standalone="no"?>
<svg width="137px" height="50px" viewBox="0 0 137 50" version="1.1" xmlns="http://www.w3.org/2000/svg" xmlns:xlink="http://www.w3.org/1999/xlink">
    <!-- Generator: Sketch 41.2 (35397) - http://www.bohemiancoding.com/sketch -->
    <title>official-android-cn</title>
    <desc>Created with Sketch.</desc>
    <defs>
        <rect id="path-1" x="0" y="0" width="137" height="50" rx="5"></rect>
        <mask id="mask-2" maskContentUnits="userSpaceOnUse" maskUnits="objectBoundingBox" x="0" y="0" width="137" height="50" fill="white">
            <use xlink:href="#path-1"></use>
        </mask>
    </defs>
    <g id="Page-1" stroke="none" stroke-width="1" fill="none" fill-rule="evenodd">
        <g id="official-android-cn">
            <g id="Group-20">
                <use id="Rectangle-4" stroke="#A6A6A6" mask="url(#mask-2)" stroke-width="2" fill="#000000" xlink:href="#path-1"></use>
                <g id="Group-4" transform="translate(53.000000, 7.000000)" fill="#FFFFFF">
                    <path d="M7.98,10.371 L9.139,14 L11.647,14 L7.486,1.194 L4.503,1.194 L0.399,14 L2.812,14 L3.914,10.371 L7.98,10.371 Z M4.294,8.604 L5.282,5.45 C5.51,4.69 5.7,3.797 5.89,3.056 L5.928,3.056 C6.118,3.797 6.327,4.671 6.574,5.45 L7.581,8.604 L4.294,8.604 Z M13.718,14 L16.055,14 L16.055,8.547 C16.055,8.281 16.093,7.996 16.169,7.806 C16.416,7.103 17.062,6.438 17.993,6.438 C19.266,6.438 19.76,7.445 19.76,8.775 L19.76,14 L22.097,14 L22.097,8.509 C22.097,5.583 20.425,4.538 18.81,4.538 C17.271,4.538 16.264,5.412 15.846,6.134 L15.789,6.134 L15.675,4.747 L13.642,4.747 C13.68,5.545 13.718,6.438 13.718,7.502 L13.718,14 Z M31.255,0.491 L31.255,5.735 L31.217,5.735 C30.799,5.051 29.887,4.538 28.614,4.538 C26.391,4.538 24.453,6.381 24.472,9.478 C24.472,12.328 26.22,14.209 28.443,14.209 C29.773,14.209 30.894,13.563 31.445,12.537 L31.483,12.537 L31.597,14 L33.668,14 C33.63,13.373 33.592,12.347 33.592,11.397 L33.592,0.491 L31.255,0.491 Z M31.255,9.991 C31.255,10.238 31.236,10.466 31.179,10.675 C30.951,11.682 30.115,12.328 29.165,12.328 C27.683,12.328 26.847,11.093 26.847,9.383 C26.847,7.673 27.683,6.343 29.184,6.343 C30.248,6.343 30.989,7.084 31.198,7.977 C31.236,8.167 31.255,8.414 31.255,8.604 L31.255,9.991 Z M36.5750001,14 L38.9120001,14 L38.9120001,9.193 C38.9120001,8.946 38.9310001,8.699 38.9690001,8.49 C39.1780001,7.426 39.9570001,6.723 41.0590001,6.723 C41.3440001,6.723 41.5530001,6.742 41.7620001,6.78 L41.7620001,4.595 C41.5720001,4.557 41.4390001,4.538 41.2110001,4.538 C40.2040001,4.538 39.1210001,5.203 38.6650001,6.495 L38.6080001,6.495 L38.5130001,4.747 L36.4990001,4.747 C36.5560001,5.564 36.5750001,6.476 36.5750001,7.73 L36.5750001,14 Z M47.7090001,14.209 C50.0460001,14.209 52.4400001,12.689 52.4400001,9.288 C52.4400001,6.476 50.5970001,4.538 47.8420001,4.538 C45.0490001,4.538 43.0540001,6.4 43.0540001,9.44 C43.0540001,12.423 45.0870001,14.209 47.6900001,14.209 L47.7090001,14.209 Z M47.7470001,12.518 C46.3600001,12.518 45.4670001,11.169 45.4670001,9.383 C45.4670001,7.844 46.1320001,6.229 47.7850001,6.229 C49.3810001,6.229 50.0270001,7.901 50.0270001,9.345 C50.0270001,11.226 49.0960001,12.518 47.7660001,12.518 L47.7470001,12.518 Z M57.1710001,14 L57.1710001,4.747 L54.8340001,4.747 L54.8340001,14 L57.1710001,14 Z M56.0120001,3.417 C56.8100001,3.417 57.3230001,2.847 57.3230001,2.163 C57.3040001,1.441 56.8100001,0.89 56.0120001,0.89 C55.2330001,0.89 54.7010001,1.441 54.7010001,2.163 C54.7010001,2.847 55.2140001,3.417 55.9930001,3.417 L56.0120001,3.417 Z M66.3670001,0.491 L66.3670001,5.735 L66.3290001,5.735 C65.9110001,5.051 64.9990001,4.538 63.7260001,4.538 C61.5030001,4.538 59.5650001,6.381 59.5840001,9.478 C59.5840001,12.328 61.3320001,14.209 63.5550001,14.209 C64.8850001,14.209 66.0060001,13.563 66.5570001,12.537 L66.5950001,12.537 L66.7090001,14 L68.7800001,14 C68.7420001,13.373 68.7040001,12.347 68.7040001,11.397 L68.7040001,0.491 L66.3670001,0.491 Z M66.3670001,9.991 C66.3670001,10.238 66.3480001,10.466 66.2910001,10.675 C66.0630001,11.682 65.2270001,12.328 64.2770001,12.328 C62.7950001,12.328 61.9590001,11.093 61.9590001,9.383 C61.9590001,7.673 62.7950001,6.343 64.2960001,6.343 C65.3600001,6.343 66.1010001,7.084 66.3100001,7.977 C66.3480001,8.167 66.3670001,8.414 66.3670001,8.604 L66.3670001,9.991 Z" id="Android"></path>
                    <path d="M0.676,21.938 L0.676,23.147 L5.538,23.147 L5.538,33.339 L6.773,33.339 L6.773,26.163 C7.865,26.722 9.23,27.541 10.868,28.607 L11.609,27.489 C9.971,26.501 8.359,25.617 6.773,24.85 L6.773,23.147 L12.311,23.147 L12.311,21.938 L0.676,21.938 Z M14.547,22.289 L14.547,23.407 L16.978,23.407 L16.978,24.343 L13.871,24.343 L13.871,25.474 L21.086,25.474 C21.164,26.592 21.307,27.567 21.489,28.373 C21.619,29.023 21.788,29.621 21.97,30.167 C21.333,31.129 20.566,31.857 19.656,32.351 L20.319,33.339 C21.125,32.897 21.853,32.286 22.503,31.48 C22.594,31.662 22.698,31.844 22.815,32.013 C23.361,32.793 23.855,33.183 24.323,33.183 C24.908,33.183 25.35,32.312 25.649,30.583 L24.596,30.024 C24.453,31.285 24.31,31.922 24.18,31.922 C24.011,31.922 23.777,31.61 23.465,31.012 C23.374,30.843 23.283,30.648 23.205,30.44 C23.842,29.348 24.362,28.009 24.765,26.423 L23.66,25.929 C23.413,26.982 23.101,27.931 22.724,28.789 C22.672,28.568 22.633,28.334 22.581,28.1 C22.451,27.424 22.347,26.553 22.269,25.474 L25.376,25.474 L25.376,24.343 L22.204,24.343 C22.152,23.433 22.126,22.419 22.126,21.288 L20.93,21.288 C20.93,22.38 20.956,23.407 21.008,24.343 L18.174,24.343 L18.174,23.407 L20.423,23.407 L20.423,22.289 L18.174,22.289 L18.174,21.301 L16.978,21.301 L16.978,22.289 L14.547,22.289 Z M23.452,21.418 L22.516,22.016 C23.166,22.744 23.673,23.394 24.037,23.979 L24.96,23.329 C24.609,22.783 24.102,22.146 23.452,21.418 Z M20.423,30.531 C19.812,30.609 19.175,30.674 18.499,30.739 L18.499,29.907 L20.358,29.907 L20.358,28.88 L18.499,28.88 L18.499,28.022 L17.29,28.022 L17.29,28.88 L16.029,28.88 C16.289,28.477 16.549,28.035 16.783,27.541 L20.488,27.541 L20.488,26.449 L17.238,26.449 C17.316,26.241 17.394,26.033 17.472,25.799 L16.302,25.578 C16.198,25.877 16.107,26.163 16.003,26.449 L14.261,26.449 L14.261,27.541 L15.522,27.541 C15.249,28.087 14.963,28.542 14.651,28.919 L14.885,29.907 L17.29,29.907 L17.29,30.856 C16.354,30.934 15.379,30.999 14.339,31.051 L14.482,32.195 C15.457,32.117 16.393,32.039 17.29,31.961 L17.29,33.3 L18.499,33.3 L18.499,31.831 C19.162,31.753 19.799,31.675 20.423,31.597 L20.423,30.531 Z" id="下载"></path>
                </g>
                <g id="Group-19-Copy" transform="translate(15.000000, 8.000000)">
                    <path d="M10.9542592,7.10725554 C11.1678116,7.10725554 11.3513304,7.0305113 11.5048212,6.87702052 C11.658312,6.72352973 11.7350562,6.54001089 11.7350562,6.3264585 C11.7350562,6.1129061 11.658312,5.92938726 11.5048212,5.77589647 C11.3513304,5.62240569 11.1678116,5.54566145 10.9542592,5.54566145 C10.7407068,5.54566145 10.5605247,5.62240569 10.4137074,5.77589647 C10.2668901,5.92938726 10.1934826,6.1129061 10.1934826,6.3264585 C10.1934826,6.54001089 10.2668901,6.72352973 10.4137074,6.87702052 C10.5605247,7.0305113 10.7407068,7.10725554 10.9542592,7.10725554 Z M19.4028837,7.10725554 C19.6164361,7.10725554 19.7966182,7.0305113 19.9434355,6.87702052 C20.0902527,6.72352973 20.1636603,6.54001089 20.1636603,6.3264585 C20.1636603,6.1129061 20.0902527,5.92938726 19.9434355,5.77589647 C19.7966182,5.62240569 19.6164361,5.54566145 19.4028837,5.54566145 C19.1893313,5.54566145 19.0058124,5.62240569 18.8523216,5.77589647 C18.6988309,5.92938726 18.6220866,6.1129061 18.6220866,6.3264585 C18.6220866,6.54001089 18.6988309,6.72352973 18.8523216,6.87702052 C19.0058124,7.0305113 19.1893313,7.10725554 19.4028837,7.10725554 Z M3.1462887,10.791016 C3.70686374,10.791016 4.18734943,10.9912184 4.58776018,11.3916291 C4.98817092,11.7920398 5.18837329,12.2725255 5.18837329,12.8331006 L5.18837329,21.4418885 C5.18837329,22.0158106 4.99150763,22.5029697 4.59777039,22.9033805 C4.20403316,23.3037912 3.72021077,23.5039936 3.1462887,23.5039936 C2.57236663,23.5039936 2.08520753,23.3037912 1.68479679,22.9033805 C1.28438604,22.5029697 1.08418367,22.0158106 1.08418367,21.4418885 L1.08418367,12.8331006 C1.08418367,12.2725255 1.28438604,11.7920398 1.68479679,11.3916291 C2.08520753,10.9912184 2.57236663,10.791016 3.1462887,10.791016 Z M24.3679521,11.1714043 L24.3679521,24.5050154 C24.3679521,25.1189786 24.1544029,25.6395047 23.7272981,26.0666095 C23.3001933,26.4937143 22.7863405,26.7072635 22.1857244,26.7072635 L20.6841916,26.7072635 L20.6841916,31.2519028 C20.6841916,31.8258248 20.4839893,32.3129839 20.0835785,32.7133947 C19.6831678,33.1138054 19.1960087,33.3140078 18.6220866,33.3140078 C18.0481646,33.3140078 17.5610055,33.1138054 17.1605947,32.7133947 C16.760184,32.3129839 16.5599816,31.8258248 16.5599816,31.2519028 L16.5599816,26.7072635 L13.7971613,26.7072635 L13.7971613,31.2519028 C13.7971613,31.8258248 13.5969589,32.3129839 13.1965482,32.7133947 C12.7961374,33.1138054 12.3089783,33.3140078 11.7350562,33.3140078 C11.1744812,33.3140078 10.6939955,33.1138054 10.2935848,32.7133947 C9.89317402,32.3129839 9.69297165,31.8258248 9.69297165,31.2519028 L9.67295121,26.7072635 L8.19143886,26.7072635 C7.57747572,26.7072635 7.05694956,26.4937143 6.62984476,26.0666095 C6.20273997,25.6395047 5.98919078,25.1189786 5.98919078,24.5050154 L5.98919078,11.1714043 L24.3679521,11.1714043 Z M19.7232107,3.06312724 C21.1513423,3.79721361 22.2924958,4.8215824 23.1467054,6.13626434 C24.000915,7.45094629 24.4280134,8.88906664 24.4280134,10.4506685 L5.90910903,10.4506685 C5.90910903,8.88906664 6.33620742,7.45094629 7.190417,6.13626434 C8.04462659,4.8215824 9.19245351,3.79721361 10.6339322,3.06312724 L9.21248116,0.440449973 C9.11905198,0.26693865 9.15241904,0.133470404 9.31258334,0.0400412302 C9.48609467,-0.0400409188 9.61956291,-4.44898208e-07 9.71299209,0.160163853 L11.1544636,2.80286156 C12.4224309,2.24228651 13.7637868,1.9620032 15.1785714,1.9620032 C16.5933561,1.9620032 17.9347119,2.24228651 19.2026793,2.80286156 L20.6441508,0.160163853 C20.7375799,-4.44898208e-07 20.8710482,-0.0400409188 21.0445595,0.0400412302 C21.2047238,0.133470404 21.2380909,0.26693865 21.1446617,0.440449973 L19.7232107,3.06312724 Z M29.2729592,12.8331006 L29.2729592,21.4418885 C29.2729592,22.0158106 29.0727568,22.5029697 28.6723461,22.9033805 C28.2719353,23.3037912 27.7847762,23.5039936 27.2108542,23.5039936 C26.6502791,23.5039936 26.1697934,23.3037912 25.7693827,22.9033805 C25.3689719,22.5029697 25.1687696,22.0158106 25.1687696,21.4418885 L25.1687696,12.8331006 C25.1687696,12.2591785 25.3689719,11.7753561 25.7693827,11.3816189 C26.1697934,10.9878816 26.6502791,10.791016 27.2108542,10.791016 C27.7847762,10.791016 28.2719353,10.9878816 28.6723461,11.3816189 C29.0727568,11.7753561 29.2729592,12.2591785 29.2729592,12.8331006 Z" id="" fill="#FFFFFF"></path>
                    <rect id="Rectangle-3-Copy" x="0" y="2.16836735" width="30.3571429" height="30.3571429"></rect>
                </g>
            </g>
        </g>
    </g>
</svg>